<?xml version="1.0" encoding="UTF-8" standalone="no"?>
<svg width="149px" height="45px" viewBox="0 0 149 45" version="1.1" xmlns="http://www.w3.org/2000/svg" xmlns:xlink="http://www.w3.org/1999/xlink" xmlns:sketch="http://www.bohemiancoding.com/sketch/ns">
    <!-- Generator: Sketch 3.5.2 (25235) - http://www.bohemiancoding.com/sketch -->
    <title>PearsonLogo_Horizontal_Blk_RGB</title>
    <desc>Created with Sketch.</desc>
    <defs></defs>
    <g id="Imagery" stroke="none" stroke-width="1" fill="none" fill-rule="evenodd" sketch:type="MSPage">
        <g id="Desktop" sketch:type="MSArtboardGroup" transform="translate(-301.000000, -338.000000)">
            <g id="PearsonLogo_Horizontal_Blk_RGB" sketch:type="MSLayerGroup" transform="translate(301.000000, 338.000000)">
                <path d="M88.3073129,29.4920327 C87.9543971,29.981986 86.8025891,31.4449065 85.3697088,31.4449065 C83.4320328,31.4449065 83.0253393,30.0833411 83.0253393,28.9415187 C83.0253393,27.0635047 84.4615807,26.1950467 88.3073129,25.2443692 L88.3073129,29.4920327 L88.3073129,29.4920327 Z M93.0949943,31.7922897 C93.0391159,31.6465654 92.8878663,31.563715 92.7391375,31.5988318 L92.692082,31.6108178 C92.250307,31.7067056 91.9104155,31.6797897 91.6721973,31.5189252 C91.3346165,31.2897196 91.1701325,30.7736916 91.1701325,29.9414019 L91.1701325,22.4129439 C91.1701325,19.4723832 89.4183676,17.9814953 85.9629435,17.9814953 C82.8679977,17.9814953 80.443592,19.4477804 80.443592,21.3196963 C80.443592,22.2821495 81.0292642,22.977757 81.8945382,23.0822664 C82.4598337,23.1503972 82.9988707,22.8942757 83.3906492,22.4806542 C84.151519,21.6767523 84.0527866,20.7212383 83.1303738,19.6948598 C83.6759229,19.1233178 84.64224,18.7851869 85.7444718,18.7851869 C87.5407713,18.7851869 88.3073129,19.8515187 88.3073129,22.3507009 L88.3073129,24.2531075 C87.8861247,24.3834813 87.4920353,24.5069159 86.7712888,24.6761916 C85.3169815,25.0178972 83.3217466,25.4727336 81.8168127,26.3052336 C80.574465,26.9867523 79.9444682,28.0629673 79.9444682,29.504229 C79.9444682,31.0727103 80.9729657,32.9044626 83.8719172,32.9044626 C85.4951199,32.9044626 86.9498474,32.1333645 88.4425973,30.4803505 C88.5711595,32.1985514 89.221743,32.8422196 90.799781,32.8422196 C91.5583399,32.8422196 92.1654392,32.6651636 92.887026,32.3156776 C93.0826002,32.2210514 93.1756607,31.9939486 93.0949943,31.7922897 L93.0949943,31.7922897 Z" id="Fill-1" fill="#2C2C28" sketch:type="MSShapeGroup"></path>
                <path d="M125.299404,18.6914019 C123.524531,18.6914019 121.487703,19.4553505 121.487703,25.4119626 C121.487703,29.9550701 122.826262,32.1632243 125.580056,32.1632243 C128.215791,32.1632243 129.391127,30.081028 129.391127,25.4119626 C129.391127,20.8894626 128.052778,18.6914019 125.299404,18.6914019 L125.299404,18.6914019 Z M125.454855,32.9673364 C121.347797,32.9673364 118.25054,29.7460514 118.25054,25.4742056 C118.25054,21.2908879 121.482661,17.8877103 125.454855,17.8877103 C129.477465,17.8877103 132.628499,21.1649299 132.628499,25.3492991 C132.628499,30.0545327 128.905027,32.9673364 125.454855,32.9673364 L125.454855,32.9673364 Z" id="Fill-2" fill="#2C2C28" sketch:type="MSShapeGroup"></path>
                <path d="M54.4351659,29.9414019 L54.4351659,24.4951402 L56.5297634,24.4951402 C59.6553792,24.4951402 62.0331496,23.8329673 63.597533,22.5267056 C65.2322896,21.1613551 65.5753322,19.4313785 65.5753322,18.2207944 C65.5753322,13.2409346 60.7752568,12.1958411 56.7482351,12.1958411 L56.7646204,12.1954206 L48.5967197,12.1954206 C48.411859,12.1954206 48.2614497,12.3459813 48.2614497,12.531028 L48.2614497,12.5533178 L48.2612396,12.5461682 C48.2612396,12.7171262 48.3654338,12.8693692 48.5257164,12.9282477 C49.2531851,13.1959346 51.2293037,12.8191121 51.2293037,14.9406308 L51.2295138,29.9384579 C51.2295138,31.0293925 50.7461451,31.7990187 48.53685,32.0078271 C48.3618626,32.0246495 48.2295192,32.168271 48.2295192,32.3417523 L48.2295192,32.393271 C48.2295192,32.5783178 48.3799285,32.7288785 48.5647892,32.7288785 L57.2910532,32.7288785 C57.4757038,32.7288785 57.6263233,32.5783178 57.6263233,32.393271 L57.6263233,32.3474299 C57.6263233,32.1739486 57.4889382,32.0271729 57.3139507,32.0135047 C54.913913,31.8213084 54.4320149,31.0769159 54.4320149,29.9384579 L54.4320149,24.5046028 M61.9638268,18.1581308 C61.9638268,21.6231308 61.1107369,23.5320561 56.7482351,23.5320561 L54.4351659,23.5320561 L54.4351659,13.0621963 L56.8421359,13.0621963 C61.3552571,13.0621963 61.9638268,15.6381308 61.9638268,18.1581308" id="Fill-3" fill="#2C2C28" sketch:type="MSShapeGroup"></path>
                <path d="M68.5156672,23.5427804 C68.8339216,20.4209579 70.0510611,18.7096963 71.9624785,18.7096963 C72.9193425,18.7096963 73.6283252,18.9746495 74.1297598,19.5201168 C74.8187859,20.2693458 75.1099415,21.6225 74.9954539,23.5427804 L68.5156672,23.5427804 L68.5156672,23.5427804 Z M72.18032,17.8803505 C68.3818533,17.8803505 65.2917391,21.3230607 65.2917391,25.554743 C65.2917391,29.8385748 68.18901,32.9479907 72.18032,32.9479907 C75.5344908,32.9479907 77.1663064,30.9421262 78.1019535,29.4331542 C78.1941737,29.2849065 78.1538405,29.0880841 78.0103634,28.985257 L77.9662489,28.9539252 C77.8215114,28.8506776 77.6200553,28.879486 77.5085087,29.0203738 C76.2749838,30.5680374 75.1958597,31.4640421 73.3317078,31.4640421 C70.973894,31.4640421 68.4549573,29.8379439 68.4549573,25.274229 L68.4549573,25.2403738 C68.450966,25.038715 68.4557975,24.7624065 68.46315,24.5046028 L78.1095159,24.5046028 C78.1359846,24.5046028 78.1576217,24.4839953 78.1595124,24.4579206 L78.1649741,24.3803271 C78.3010988,22.5082009 77.7721452,20.8272196 76.6757954,19.646285 C75.6027632,18.4910047 74.0480429,17.8803505 72.18032,17.8803505 L72.18032,17.8803505 Z" id="Fill-4" fill="#2C2C28" sketch:type="MSShapeGroup"></path>
                <path d="M112.163373,23.7116355 C112.162532,23.711215 112.161482,23.711215 112.160432,23.7110047 C109.522386,22.9703972 108.494518,22.2205374 108.494518,21.0370794 C108.494518,19.6883411 109.563979,18.7096963 111.037193,18.7096963 C112.770472,18.7096963 113.512645,19.5388318 115.342136,22.6007243 L115.366504,22.6415187 C115.375327,22.6568692 115.391922,22.6665421 115.409568,22.6665421 L115.6606,22.6665421 C115.845251,22.6665421 115.99587,22.515771 115.99587,22.3309346 L115.99587,17.9308178 C115.99587,17.9028505 115.973183,17.8803505 115.945454,17.8803505 L115.614385,17.8803505 C115.513552,17.8803505 115.419021,17.9251402 115.35537,18.0031542 L114.771379,18.7145327 C114.034037,18.3076402 112.833703,17.8803505 111.628957,17.8803505 C108.599343,17.8803505 106.483108,19.7547897 106.483108,22.4388084 C106.483108,24.957757 108.151686,25.9019159 111.032992,26.6807944 C113.83258,27.4478972 114.824736,28.2459112 114.824736,29.729229 C114.824736,31.3771963 113.228842,32.1186449 112.09573,32.1186449 C109.988109,32.1186449 109.096786,31.3342991 107.076973,27.7014953 L107.053025,27.6581776 C107.044202,27.6421963 107.027397,27.6321028 107.009121,27.6321028 L106.756408,27.6321028 C106.571547,27.6321028 106.421138,27.7826636 106.421138,27.9677103 L106.421138,32.8975234 C106.421138,32.9252804 106.443615,32.9479907 106.471344,32.9479907 L106.814177,32.9479907 C106.902616,32.9479907 106.988954,32.9118224 107.051345,32.8497897 L107.974808,31.9249766 C109.055823,32.5966121 110.672093,32.9479907 111.722228,32.9479907 C113.298165,32.9479907 114.59387,32.4483645 115.469438,31.5027336 C116.250054,30.6601402 116.680065,29.4659579 116.680065,28.1401402 C116.680065,25.8442991 115.455783,24.6438084 112.163373,23.7116355" id="Fill-5" fill="#2C2C28" sketch:type="MSShapeGroup"></path>
                <path d="M96.2002334,30.9589486 C96.2002334,31.7191121 96.00718,31.9678738 94.7988635,32.0442056 C94.6234559,32.0553505 94.4858607,32.2019159 94.4858607,32.3785514 C94.4858607,32.5631776 94.63585,32.713528 94.8205006,32.713528 L100.79024,32.713528 C100.971739,32.713528 101.119628,32.5654907 101.119628,32.3840187 C101.119628,32.2048598 100.980142,32.0578738 100.802004,32.0490421 C99.4201702,31.9825935 99.0626329,31.7586449 99.0626329,30.9587383 L99.0626329,22.1963551 C100.044915,20.5607944 100.751587,19.704743 101.943518,19.4458879 C101.885749,19.6525935 101.847937,19.900514 101.847937,20.1015421 C101.847937,21.1659813 102.590951,21.9091121 103.65432,21.9091121 C104.698993,21.9091121 105.428772,21.1659813 105.428772,20.1015421 C105.428772,19.0945093 104.800666,17.9188318 103.030205,17.9188318 C101.578629,17.9188318 100.191333,18.7517523 99.0004525,20.7447897 L99.0004525,18.4907944 C99.0004525,18.2611682 98.8111803,18.0765421 98.581785,18.0824299 L94.8202905,18.1829439 C94.6381607,18.1882009 94.4955239,18.3347664 94.4955239,18.5170794 L94.4955239,18.5658645 C94.4955239,18.7309346 94.6156834,18.8726636 94.7744955,18.8949533 C96.028397,19.0730607 96.2012838,19.670257 96.2004435,20.2886916 L96.2002334,30.9589486" id="Fill-6" fill="#2C2C28" sketch:type="MSShapeGroup"></path>
                <path d="M137.485924,18.0725467 C137.572892,18.0725467 137.655239,18.1059813 137.71805,18.1667523 C137.783591,18.2300467 137.819933,18.3152103 137.820563,18.4060514 L137.834008,20.9056542 C137.834008,20.9056542 139.05892,17.9739252 143.035315,17.9739252 L143.070186,17.9739252 C145.54879,17.9739252 146.970326,19.5560748 146.970326,22.3141121 L146.970326,30.9444393 C146.970326,31.7050234 147.16338,31.953785 148.371276,32.0296963 C148.546894,32.0406308 148.684699,32.1871963 148.684699,32.3640421 C148.684699,32.5484579 148.5345,32.6988084 148.350059,32.6988084 L142.987209,32.6988084 C142.802348,32.6988084 142.651939,32.5480374 142.651939,32.3632009 C142.651939,32.1840421 142.786383,32.0376869 142.957799,32.0229673 C143.931889,31.9396963 144.08755,31.6932477 144.08755,30.9444393 L144.08755,23.1556542 C144.08755,20.5839252 143.357141,19.5823598 141.482485,19.5823598 C140.21598,19.5823598 139.178239,20.689486 138.531017,21.6180841 C138.531017,21.6180841 138.200578,22.0331776 137.84199,22.813528 L137.881693,30.9440187 C137.881693,31.6915654 138.033153,31.9378037 138.979724,32.0219159 C139.15051,32.0370561 139.284534,32.1834112 139.284534,32.3552103 C139.284534,32.5480374 139.134125,32.6988084 138.949684,32.6988084 L133.619815,32.6988084 C133.435374,32.6988084 133.285175,32.5484579 133.285175,32.3638318 C133.285175,32.1871963 133.42277,32.0406308 133.598178,32.029486 C134.806494,31.9531542 134.999548,31.7043925 134.999548,30.9444393 L134.999548,20.2907944 C134.999548,19.6689953 134.825821,19.0686449 133.565407,18.8896963 C133.405965,18.866986 133.285175,18.7248364 133.285175,18.5589252 L133.285175,18.5097196 C133.285175,18.3267757 133.428862,18.1793692 133.611622,18.1741121 L137.485924,18.0725467" id="Fill-7" fill="#2C2C28" sketch:type="MSShapeGroup"></path>
                <path d="M32.0636635,3.07429907 C41.5163459,8.46504673 43.716608,20.5540654 37.1397695,32.7841822 C31.3595124,43.5353972 18.73815,48.1270794 9.3337834,42.6534813 C-0.0726838552,37.1790421 -1.9082663,21.9074299 2.13388035,13.118972 C8.00320669,0.357897196 21.6196657,-2.88357477 32.0636635,3.07429907" id="Fill-8" fill="#007E98" sketch:type="MSShapeGroup"></path>
                <path d="M19.8947896,34.9279907 C19.6069951,34.7034112 19.2834889,34.5492757 18.9578821,34.4838785 C18.8469657,34.4624299 18.7331083,34.4502336 18.6207214,34.4502336 C18.0058496,34.4502336 17.4031618,34.7889953 17.0088624,35.358014 C16.6794743,35.830514 16.5448201,36.3951168 16.6322088,36.9433178 C16.6874569,37.2919626 16.8183299,37.5951869 17.0111732,37.8212383 C17.2277542,38.076729 17.559243,38.2718692 17.9699278,38.3889953 C18.2075158,38.4550234 18.4514058,38.4899299 18.6946657,38.4899299 L18.6952959,38.4899299 C19.22572,38.4899299 19.7029966,38.3307477 20.0737683,38.0294159 C20.5050399,37.6780374 20.7398969,37.1765187 20.7346452,36.6182243 C20.7298136,35.9667757 20.4157606,35.3340421 19.8947896,34.9279907 M31.8443515,12.3495561 C33.6946388,14.3270327 34.2708579,17.3279439 33.9490322,19.7888551 C33.5814116,22.595257 31.882374,25.1920093 29.0558963,26.913785 C26.8142506,28.2791355 23.8697142,28.823972 20.9722332,28.8498364 C20.9491256,29.3097196 20.8573255,30.8937617 20.8111103,31.1444159 C20.743048,31.5138785 20.6138556,31.7132243 20.4556737,31.9201402 C20.1445615,32.3259813 19.6046844,32.5882009 19.0685884,32.7410748 C18.6423585,32.8624065 18.2209602,32.9145561 17.9220321,32.9145561 C17.8714055,32.9145561 17.8220393,32.9118224 17.7737234,32.9057243 C17.45862,32.8699766 17.1088552,32.721729 16.8924842,32.4801168 C16.6765333,32.2385047 16.5540631,31.9329673 16.5254938,31.5868458 L16.5013358,31.2741589 C16.4399957,31.0047897 16.1043055,17.3683178 16.1694269,17.6109813 C16.2179528,15.9771028 18.8532677,15.6919626 20.2832071,15.9804673 C21.7160873,16.2696028 21.3532983,18.0124065 21.3146456,20.1545327 C21.3146456,20.1545327 21.2465832,22.9716589 21.1144499,25.9483879 C22.9384785,25.8768925 24.3877442,25.3564486 25.7441594,24.6818692 C28.4834584,23.3226168 29.9333543,21.2376869 29.9333543,18.1667523 C29.9333543,15.0958178 26.946594,11.6566822 21.4371158,11.6566822 C15.9278476,11.6566822 13.5628914,13.0476869 10.8952259,15.2571028 C10.2937985,15.7550467 9.83059645,16.256986 9.39239263,16.5873364 C8.95439888,16.9178972 7.79103706,16.9683645 7.47908467,16.1951636 C7.10327133,15.2629907 7.80553182,14.223785 8.21810722,13.7210047 C8.86595985,12.9316121 10.4641644,11.3416822 12.2352557,10.4179206 C14.2638915,9.3578972 16.7458561,8.21628505 20.2010701,8.12901869 C23.3271061,8.04995327 28.262676,8.30334112 31.8178828,12.3230607" id="Fill-9" fill="#FFFFFF" sketch:type="MSShapeGroup"></path>
            </g>
        </g>
    </g>
</svg>